<?xml version="1.0" encoding="UTF-8" standalone="no"?>
<!DOCTYPE svg PUBLIC "-//W3C//DTD SVG 1.1//EN"
 "http://www.w3.org/Graphics/SVG/1.1/DTD/svg11.dtd">
<!-- Generated by graphviz version 2.43.0 (0)
 -->
<!-- Title: G Pages: 1 -->
<svg width="1093pt" height="533pt"
 viewBox="0.00 0.00 1093.00 533.00" xmlns="http://www.w3.org/2000/svg" xmlns:xlink="http://www.w3.org/1999/xlink">
<g id="graph0" class="graph" transform="scale(1 1) rotate(0) translate(4 529)">
<title>G</title>
<polygon fill="white" stroke="transparent" points="-4,4 -4,-529 1089,-529 1089,4 -4,4"/>
<g id="clust1" class="cluster">
<title>cluster_GitData</title>
<polygon fill="grey" stroke="grey" points="8,-8 8,-462 618,-462 618,-8 8,-8"/>
<text text-anchor="middle" x="313" y="-446.8" font-family="Times,serif" font-size="14.00">ShapeTree</text>
</g>
<g id="clust4" class="cluster">
<title>cluster_0</title>
<polygon fill="none" stroke="blue" points="626,-81 626,-462 1077,-462 1077,-81 626,-81"/>
<text text-anchor="middle" x="851.5" y="-446.8" font-family="Times,serif" font-size="14.00">ShapeTree Decorators (partial)</text>
</g>
<!-- GitData -->
<g id="node1" class="node">
<title>GitData</title>
<polygon fill="white" stroke="white" points="480,-431 477,-435 456,-435 453,-431 408,-431 408,-395 480,-395 480,-431"/>
<text text-anchor="middle" x="444" y="-409.3" font-family="Times,serif" font-size="14.00">GitData</text>
</g>
<!-- repos -->
<g id="node2" class="node">
<title>repos</title>
<polygon fill="white" stroke="white" points="313,-358 310,-362 289,-362 286,-358 257,-358 257,-322 313,-322 313,-358"/>
<text text-anchor="middle" x="285" y="-336.3" font-family="Times,serif" font-size="14.00">repos</text>
</g>
<!-- GitData&#45;&gt;repos -->
<g id="edge1" class="edge">
<title>GitData&#45;&gt;repos</title>
<path fill="none" stroke="black" d="M407.92,-395.89C382.41,-384.5 348.29,-369.26 322.48,-357.73"/>
<polygon fill="black" stroke="black" points="323.58,-354.39 313.02,-353.51 320.73,-360.79 323.58,-354.39"/>
</g>
<!-- users -->
<g id="node12" class="node">
<title>users</title>
<polygon fill="white" stroke="white" points="436,-358 433,-362 412,-362 409,-358 380,-358 380,-322 436,-322 436,-358"/>
<text text-anchor="middle" x="408" y="-336.3" font-family="Times,serif" font-size="14.00">users</text>
</g>
<!-- GitData&#45;&gt;users -->
<g id="edge12" class="edge">
<title>GitData&#45;&gt;users</title>
<path fill="none" stroke="black" d="M435.29,-394.81C431.08,-386.53 425.95,-376.41 421.28,-367.19"/>
<polygon fill="black" stroke="black" points="424.28,-365.37 416.63,-358.03 418.04,-368.53 424.28,-365.37"/>
</g>
<!-- orgs -->
<g id="node13" class="node">
<title>orgs</title>
<polygon fill="white" stroke="white" points="508,-358 505,-362 484,-362 481,-358 454,-358 454,-322 508,-322 508,-358"/>
<text text-anchor="middle" x="481" y="-336.3" font-family="Times,serif" font-size="14.00">orgs</text>
</g>
<!-- GitData&#45;&gt;orgs -->
<g id="edge20" class="edge">
<title>GitData&#45;&gt;orgs</title>
<path fill="none" stroke="black" d="M452.96,-394.81C457.32,-386.44 462.66,-376.2 467.5,-366.9"/>
<polygon fill="black" stroke="black" points="470.61,-368.51 472.13,-358.03 464.4,-365.28 470.61,-368.51"/>
</g>
<!-- repo -->
<g id="node3" class="node">
<title>repo</title>
<polygon fill="#ffeecc" stroke="#ffeecc" points="269.5,-271 214.5,-271 214.5,-275 202.5,-275 202.5,-235 269.5,-235 269.5,-271"/>
<polyline fill="none" stroke="#ffeecc" points="202.5,-271 214.5,-271 "/>
<text text-anchor="middle" x="236" y="-249.3" font-family="Times,serif" font-size="14.00">{repo}</text>
</g>
<!-- repos&#45;&gt;repo -->
<g id="edge2" class="edge">
<title>repos&#45;&gt;repo</title>
<path fill="none" stroke="black" d="M275.08,-321.8C268.18,-309.82 258.84,-293.62 251.02,-280.06"/>
<polygon fill="black" stroke="black" points="253.93,-278.09 245.9,-271.18 247.86,-281.59 253.93,-278.09"/>
</g>
<!-- issues -->
<g id="node4" class="node">
<title>issues</title>
<polygon fill="white" stroke="white" points="123.5,-198 120.5,-202 99.5,-202 96.5,-198 62.5,-198 62.5,-162 123.5,-162 123.5,-198"/>
<text text-anchor="middle" x="93" y="-176.3" font-family="Times,serif" font-size="14.00">issues</text>
</g>
<!-- repo&#45;&gt;issues -->
<g id="edge3" class="edge">
<title>repo&#45;&gt;issues</title>
<path fill="none" stroke="black" d="M202.47,-235.35C181.67,-225.02 154.83,-211.7 132.93,-200.82"/>
<polygon fill="black" stroke="black" points="134.39,-197.64 123.87,-196.33 131.28,-203.91 134.39,-197.64"/>
</g>
<!-- labels -->
<g id="node7" class="node">
<title>labels</title>
<polygon fill="white" stroke="white" points="214.5,-198 211.5,-202 190.5,-202 187.5,-198 155.5,-198 155.5,-162 214.5,-162 214.5,-198"/>
<text text-anchor="middle" x="185" y="-176.3" font-family="Times,serif" font-size="14.00">labels</text>
</g>
<!-- repo&#45;&gt;labels -->
<g id="edge7" class="edge">
<title>repo&#45;&gt;labels</title>
<path fill="none" stroke="black" d="M223.65,-234.81C217.52,-226.27 209.98,-215.77 203.19,-206.32"/>
<polygon fill="black" stroke="black" points="205.91,-204.11 197.23,-198.03 200.22,-208.19 205.91,-204.11"/>
</g>
<!-- milestones -->
<g id="node9" class="node">
<title>milestones</title>
<polygon fill="white" stroke="white" points="327,-198 324,-202 303,-202 300,-198 233,-198 233,-162 327,-162 327,-198"/>
<text text-anchor="middle" x="280" y="-176.3" font-family="Times,serif" font-size="14.00">milestones</text>
</g>
<!-- repo&#45;&gt;milestones -->
<g id="edge9" class="edge">
<title>repo&#45;&gt;milestones</title>
<path fill="none" stroke="black" d="M246.65,-234.81C251.89,-226.35 258.32,-215.98 264.13,-206.61"/>
<polygon fill="black" stroke="black" points="267.15,-208.37 269.45,-198.03 261.2,-204.69 267.15,-208.37"/>
</g>
<!-- user -->
<g id="node11" class="node">
<title>user</title>
<polygon fill="#ffeecc" stroke="#ffeecc" points="441,-271 387,-271 387,-275 375,-275 375,-235 441,-235 441,-271"/>
<polyline fill="none" stroke="#ffeecc" points="375,-271 387,-271 "/>
<text text-anchor="middle" x="408" y="-249.3" font-family="Times,serif" font-size="14.00">{user}</text>
</g>
<!-- repo&#45;&gt;user -->
<g id="edge11" class="edge">
<title>repo&#45;&gt;user</title>
<path fill="none" stroke="blue" d="M269.57,-253C296.77,-253 335.28,-253 364.78,-253"/>
<polygon fill="blue" stroke="blue" points="364.81,-256.5 374.81,-253 364.81,-249.5 364.81,-256.5"/>
<text text-anchor="middle" x="322.25" y="-259.8" font-family="Times,serif" font-size="14.00">contributor*</text>
</g>
<!-- user_issue -->
<g id="node5" class="node">
<title>user_issue</title>
<polygon fill="#ffeecc" stroke="#ffeecc" points="87.5,-125 84.5,-129 63.5,-129 60.5,-125 16.5,-125 16.5,-89 87.5,-89 87.5,-125"/>
<text text-anchor="middle" x="52" y="-103.3" font-family="Times,serif" font-size="14.00">{issue}</text>
</g>
<!-- issues&#45;&gt;user_issue -->
<g id="edge4" class="edge">
<title>issues&#45;&gt;user_issue</title>
<path fill="none" stroke="black" d="M83.08,-161.81C78.24,-153.44 72.33,-143.2 66.96,-133.9"/>
<polygon fill="black" stroke="black" points="69.87,-131.94 61.83,-125.03 63.8,-135.44 69.87,-131.94"/>
</g>
<!-- user_issue&#45;&gt;user_issue -->
<g id="edge6" class="edge">
<title>user_issue&#45;&gt;user_issue</title>
<path fill="none" stroke="blue" d="M87.75,-113.72C97.79,-113.42 105.5,-111.18 105.5,-107 105.5,-104.39 102.49,-102.53 97.78,-101.43"/>
<polygon fill="blue" stroke="blue" points="98.09,-97.95 87.75,-100.28 97.29,-104.9 98.09,-97.95"/>
<text text-anchor="middle" x="136" y="-103.3" font-family="Times,serif" font-size="14.00">seeAlso*</text>
</g>
<!-- user_issue_message -->
<g id="node6" class="node">
<title>user_issue_message</title>
<polygon fill="#ffeecc" stroke="#ffeecc" points="106.5,-52 15.5,-52 15.5,-16 112.5,-16 112.5,-46 106.5,-52"/>
<polyline fill="none" stroke="#ffeecc" points="106.5,-52 106.5,-46 "/>
<polyline fill="none" stroke="#ffeecc" points="112.5,-46 106.5,-46 "/>
<text text-anchor="middle" x="64" y="-30.3" font-family="Times,serif" font-size="14.00">{message}</text>
</g>
<!-- user_issue&#45;&gt;user_issue_message -->
<g id="edge5" class="edge">
<title>user_issue&#45;&gt;user_issue_message</title>
<path fill="none" stroke="black" d="M54.9,-88.81C56.26,-80.79 57.91,-71.05 59.42,-62.07"/>
<polygon fill="black" stroke="black" points="62.91,-62.47 61.12,-52.03 56,-61.31 62.91,-62.47"/>
</g>
<!-- user_label -->
<g id="node8" class="node">
<title>user_label</title>
<polygon fill="#ffeecc" stroke="#ffeecc" points="247.5,-125 184.5,-125 184.5,-89 253.5,-89 253.5,-119 247.5,-125"/>
<polyline fill="none" stroke="#ffeecc" points="247.5,-125 247.5,-119 "/>
<polyline fill="none" stroke="#ffeecc" points="253.5,-119 247.5,-119 "/>
<text text-anchor="middle" x="219" y="-103.3" font-family="Times,serif" font-size="14.00">{label}</text>
</g>
<!-- labels&#45;&gt;user_label -->
<g id="edge8" class="edge">
<title>labels&#45;&gt;user_label</title>
<path fill="none" stroke="black" d="M193.23,-161.81C197.2,-153.53 202.04,-143.41 206.46,-134.19"/>
<polygon fill="black" stroke="black" points="209.68,-135.56 210.85,-125.03 203.37,-132.54 209.68,-135.56"/>
</g>
<!-- user_milestone -->
<g id="node10" class="node">
<title>user_milestone</title>
<polygon fill="#ffeecc" stroke="#ffeecc" points="370,-125 272,-125 272,-89 376,-89 376,-119 370,-125"/>
<polyline fill="none" stroke="#ffeecc" points="370,-125 370,-119 "/>
<polyline fill="none" stroke="#ffeecc" points="376,-119 370,-119 "/>
<text text-anchor="middle" x="324" y="-103.3" font-family="Times,serif" font-size="14.00">{milestone}</text>
</g>
<!-- milestones&#45;&gt;user_milestone -->
<g id="edge10" class="edge">
<title>milestones&#45;&gt;user_milestone</title>
<path fill="none" stroke="black" d="M290.65,-161.81C295.89,-153.35 302.32,-142.98 308.13,-133.61"/>
<polygon fill="black" stroke="black" points="311.15,-135.37 313.45,-125.03 305.2,-131.69 311.15,-135.37"/>
</g>
<!-- user&#45;&gt;user -->
<g id="edge15" class="edge">
<title>user&#45;&gt;user</title>
<path fill="none" stroke="blue" d="M441.35,-259.74C451.28,-259.53 459,-257.29 459,-253 459,-250.32 455.98,-248.44 451.3,-247.35"/>
<polygon fill="blue" stroke="blue" points="451.68,-243.87 441.35,-246.26 450.91,-250.83 451.68,-243.87"/>
<text text-anchor="middle" x="495.5" y="-249.3" font-family="Times,serif" font-size="14.00">following*</text>
</g>
<!-- user&#45;&gt;orgs -->
<g id="edge14" class="edge">
<title>user&#45;&gt;orgs</title>
<path fill="none" stroke="blue" d="M422.75,-271.18C433.33,-283.5 447.75,-300.29 459.6,-314.08"/>
<polygon fill="blue" stroke="blue" points="457.06,-316.49 466.23,-321.8 462.37,-311.93 457.06,-316.49"/>
<text text-anchor="middle" x="472" y="-292.8" font-family="Times,serif" font-size="14.00">inOrg*</text>
</g>
<!-- recieved_events -->
<g id="node14" class="node">
<title>recieved_events</title>
<polygon fill="white" stroke="white" points="476.5,-198 473.5,-202 452.5,-202 449.5,-198 345.5,-198 345.5,-162 476.5,-162 476.5,-198"/>
<text text-anchor="middle" x="411" y="-176.3" font-family="Times,serif" font-size="14.00">recieved_events</text>
</g>
<!-- user&#45;&gt;recieved_events -->
<g id="edge16" class="edge">
<title>user&#45;&gt;recieved_events</title>
<path fill="none" stroke="black" d="M408.73,-234.81C409.07,-226.79 409.48,-217.05 409.86,-208.07"/>
<polygon fill="black" stroke="black" points="413.36,-208.17 410.28,-198.03 406.36,-207.87 413.36,-208.17"/>
</g>
<!-- subscriptions -->
<g id="node16" class="node">
<title>subscriptions</title>
<polygon fill="white" stroke="white" points="607.5,-198 604.5,-202 583.5,-202 580.5,-198 494.5,-198 494.5,-162 607.5,-162 607.5,-198"/>
<text text-anchor="middle" x="551" y="-176.3" font-family="Times,serif" font-size="14.00">subscriptions</text>
</g>
<!-- user&#45;&gt;subscriptions -->
<g id="edge18" class="edge">
<title>user&#45;&gt;subscriptions</title>
<path fill="none" stroke="black" d="M441.17,-235.53C460.86,-225.76 486.06,-213.24 507.35,-202.67"/>
<polygon fill="black" stroke="black" points="509.12,-205.7 516.52,-198.12 506.01,-199.43 509.12,-205.7"/>
</g>
<!-- users&#45;&gt;user -->
<g id="edge13" class="edge">
<title>users&#45;&gt;user</title>
<path fill="none" stroke="black" d="M408,-321.8C408,-310.16 408,-294.55 408,-281.24"/>
<polygon fill="black" stroke="black" points="411.5,-281.18 408,-271.18 404.5,-281.18 411.5,-281.18"/>
</g>
<!-- org -->
<g id="node18" class="node">
<title>org</title>
<polygon fill="#ffeecc" stroke="#ffeecc" points="609.5,-271 562.5,-271 562.5,-275 550.5,-275 550.5,-235 609.5,-235 609.5,-271"/>
<polyline fill="none" stroke="#ffeecc" points="550.5,-271 562.5,-271 "/>
<text text-anchor="middle" x="580" y="-249.3" font-family="Times,serif" font-size="14.00">{org}</text>
</g>
<!-- orgs&#45;&gt;org -->
<g id="edge21" class="edge">
<title>orgs&#45;&gt;org</title>
<path fill="none" stroke="black" d="M501.03,-321.8C515.79,-309.13 536.05,-291.73 552.35,-277.74"/>
<polygon fill="black" stroke="black" points="554.69,-280.35 560,-271.18 550.13,-275.03 554.69,-280.35"/>
</g>
<!-- user_event -->
<g id="node15" class="node">
<title>user_event</title>
<polygon fill="#ffeecc" stroke="#ffeecc" points="462,-125 394,-125 394,-89 468,-89 468,-119 462,-125"/>
<polyline fill="none" stroke="#ffeecc" points="462,-125 462,-119 "/>
<polyline fill="none" stroke="#ffeecc" points="468,-119 462,-119 "/>
<text text-anchor="middle" x="431" y="-103.3" font-family="Times,serif" font-size="14.00">{event}</text>
</g>
<!-- recieved_events&#45;&gt;user_event -->
<g id="edge17" class="edge">
<title>recieved_events&#45;&gt;user_event</title>
<path fill="none" stroke="black" d="M415.84,-161.81C418.13,-153.7 420.91,-143.84 423.46,-134.78"/>
<polygon fill="black" stroke="black" points="426.86,-135.6 426.2,-125.03 420.12,-133.71 426.86,-135.6"/>
</g>
<!-- user_subscription -->
<g id="node17" class="node">
<title>user_subscription</title>
<polygon fill="#ffeecc" stroke="#ffeecc" points="603.5,-125 486.5,-125 486.5,-89 609.5,-89 609.5,-119 603.5,-125"/>
<polyline fill="none" stroke="#ffeecc" points="603.5,-125 603.5,-119 "/>
<polyline fill="none" stroke="#ffeecc" points="609.5,-119 603.5,-119 "/>
<text text-anchor="middle" x="548" y="-103.3" font-family="Times,serif" font-size="14.00">{subscription}</text>
</g>
<!-- subscriptions&#45;&gt;user_subscription -->
<g id="edge19" class="edge">
<title>subscriptions&#45;&gt;user_subscription</title>
<path fill="none" stroke="black" d="M550.27,-161.81C549.93,-153.79 549.52,-144.05 549.14,-135.07"/>
<polygon fill="black" stroke="black" points="552.64,-134.87 548.72,-125.03 545.64,-135.17 552.64,-134.87"/>
</g>
<!-- GitData_d -->
<g id="node19" class="node">
<title>GitData_d</title>
<ellipse fill="lightgrey" stroke="black" cx="839" cy="-413" rx="54.69" ry="18"/>
<text text-anchor="middle" x="839" y="-409.3" font-family="Times,serif" font-size="14.00">&#39;Git Data&#39;</text>
</g>
<!-- repos_d -->
<g id="node20" class="node">
<title>repos_d</title>
<ellipse fill="lightgrey" stroke="black" cx="990" cy="-340" rx="73.39" ry="18"/>
<text text-anchor="middle" x="990" y="-336.3" font-family="Times,serif" font-size="14.00">&#39;Repositories&#39;</text>
</g>
<!-- GitData_d&#45;&gt;repos_d -->
<g id="edge22" class="edge">
<title>GitData_d&#45;&gt;repos_d</title>
<path fill="none" stroke="white" d="M869.19,-397.8C891.86,-387.15 923.17,-372.42 948.24,-360.64"/>
<polygon fill="white" stroke="white" points="949.95,-363.7 957.51,-356.28 946.97,-357.37 949.95,-363.7"/>
</g>
<!-- repo_d -->
<g id="node23" class="node">
<title>repo_d</title>
<ellipse fill="lightgrey" stroke="black" cx="981" cy="-253" rx="65.79" ry="18"/>
<text text-anchor="middle" x="981" y="-249.3" font-family="Times,serif" font-size="14.00">&#39;Repository&#39;</text>
</g>
<!-- repos_d&#45;&gt;repo_d -->
<g id="edge23" class="edge">
<title>repos_d&#45;&gt;repo_d</title>
<path fill="none" stroke="white" d="M988.18,-321.8C986.95,-310.16 985.29,-294.55 983.88,-281.24"/>
<polygon fill="white" stroke="white" points="987.35,-280.75 982.82,-271.18 980.39,-281.49 987.35,-280.75"/>
</g>
<!-- users_d -->
<g id="node21" class="node">
<title>users_d</title>
<ellipse fill="lightgrey" stroke="black" cx="856" cy="-340" rx="42.79" ry="18"/>
<text text-anchor="middle" x="856" y="-336.3" font-family="Times,serif" font-size="14.00">&#39;Users&#39;</text>
</g>
<!-- orgs_d -->
<g id="node22" class="node">
<title>orgs_d</title>
<ellipse fill="lightgrey" stroke="black" cx="715" cy="-340" rx="80.69" ry="18"/>
<text text-anchor="middle" x="715" y="-336.3" font-family="Times,serif" font-size="14.00">&#39;Organizations&#39;</text>
</g>
<!-- repo_md -->
<g id="node24" class="node">
<title>repo_md</title>
<ellipse fill="lightgrey" stroke="black" cx="955" cy="-180" rx="108.58" ry="18"/>
<text text-anchor="middle" x="955" y="-176.3" font-family="Times,serif" font-size="14.00">Repository Metadata</text>
</g>
<!-- repo_d&#45;&gt;repo_md -->
<g id="edge24" class="edge">
<title>repo_d&#45;&gt;repo_md</title>
<path fill="none" stroke="green" d="M974.71,-234.81C971.7,-226.62 968.05,-216.62 964.7,-207.48"/>
<polygon fill="green" stroke="green" points="967.96,-206.22 961.24,-198.03 961.39,-208.62 967.96,-206.22"/>
</g>
<!-- labels_d -->
<g id="node25" class="node">
<title>labels_d</title>
<ellipse fill="lightgrey" stroke="black" cx="728" cy="-107" rx="94.48" ry="18"/>
<text text-anchor="middle" x="728" y="-103.3" font-family="Times,serif" font-size="14.00">Repository Labels</text>
</g>
<!-- repo_md&#45;&gt;labels_d -->
<g id="edge25" class="edge">
<title>repo_md&#45;&gt;labels_d</title>
<path fill="none" stroke="green" d="M906.58,-163.86C870.84,-152.68 822.1,-137.43 784.57,-125.69"/>
<polygon fill="green" stroke="green" points="785.38,-122.28 774.79,-122.64 783.29,-128.96 785.38,-122.28"/>
</g>
<!-- milestones_d -->
<g id="node26" class="node">
<title>milestones_d</title>
<ellipse fill="lightgrey" stroke="black" cx="955" cy="-107" rx="114.28" ry="18"/>
<text text-anchor="middle" x="955" y="-103.3" font-family="Times,serif" font-size="14.00">Repository Milestones</text>
</g>
<!-- repo_md&#45;&gt;milestones_d -->
<g id="edge26" class="edge">
<title>repo_md&#45;&gt;milestones_d</title>
<path fill="none" stroke="green" d="M955,-161.81C955,-153.79 955,-144.05 955,-135.07"/>
<polygon fill="green" stroke="green" points="958.5,-135.03 955,-125.03 951.5,-135.03 958.5,-135.03"/>
</g>
<!-- root -->
<g id="node27" class="node">
<title>root</title>
<polygon fill="none" stroke="white" points="639,-525 612,-507 639,-489 666,-507 639,-525"/>
<polyline fill="none" stroke="white" points="621,-513 621,-501 "/>
<polyline fill="none" stroke="white" points="630,-495 648,-495 "/>
<polyline fill="none" stroke="white" points="657,-501 657,-513 "/>
<polyline fill="none" stroke="white" points="648,-519 630,-519 "/>
</g>
<!-- root&#45;&gt;GitData -->
<g id="edge27" class="edge">
<title>root&#45;&gt;GitData</title>
<path fill="none" stroke="white" d="M624.02,-498.93C595.61,-485.53 532.84,-455.91 489.48,-435.46"/>
<polygon fill="white" stroke="white" points="490.81,-432.21 480.27,-431.11 487.82,-438.55 490.81,-432.21"/>
</g>
<!-- root&#45;&gt;GitData_d -->
<g id="edge28" class="edge">
<title>root&#45;&gt;GitData_d</title>
<path fill="none" stroke="white" d="M654.36,-498.93C685.04,-484.82 754.75,-452.75 799.2,-432.31"/>
<polygon fill="white" stroke="white" points="800.93,-435.37 808.55,-428.01 798,-429.01 800.93,-435.37"/>
</g>
</g>
</svg>
